<svg xmlns="http://www.w3.org/2000/svg" viewBox="0 0 100 100" width="100" height="100">
  <defs>
    <polygon id="poly-splinter-a" points="-8 16 18 6 42 16 32 42 6 38" />
    <polygon id="poly-splinter-b" points="22 -6 48 -12 70 6 62 30 34 26" />
    <polygon id="poly-splinter-c" points="60 4 86 10 98 34 70 46 48 30" />
    <polygon id="poly-splinter-d" points="6 56 22 40 46 44 54 68 22 78" />
    <polygon id="poly-splinter-e" points="40 56 64 42 82 60 70 86 42 80" />
    <polygon id="poly-splinter-f" points="74 60 100 52 118 78 94 96 70 86" />
    <polygon id="poly-splinter-g" points="-10 78 12 60 36 66 30 94 2 96" />
    <polygon id="poly-splinter-h" points="28 84 50 70 78 80 74 108 44 108" />
    <polygon id="poly-chip-a" points="10 24 16 14 30 18 28 32 14 30" />
    <polygon id="poly-chip-b" points="64 18 78 12 88 22 82 36 66 30" />
    <polygon id="poly-chip-c" points="40 34 52 28 66 36 62 48 46 44" />
    <polygon id="poly-chip-d" points="18 64 34 52 46 62 40 80 22 78" />
    <polygon id="poly-chip-e" points="-4 18 14 8 30 12 26 30 6 32" />
    <polygon id="poly-chip-f" points="50 8 68 0 88 10 82 30 58 28" />
    <polygon id="poly-chip-g" points="0 70 20 60 38 70 32 92 6 90" />
    <polygon id="poly-chip-h" points="54 74 72 62 94 70 88 96 60 94" />
  </defs>

  <rect width="100" height="100" fill="#0B0C0E" />

  <g fill="#16181B">
    <use href="#poly-splinter-a" />
    <use href="#poly-splinter-a" transform="translate(100 0)" />
    <use href="#poly-splinter-a" transform="translate(-100 0)" />
    <use href="#poly-splinter-a" transform="translate(0 100)" />
    <use href="#poly-splinter-a" transform="translate(0 -100)" />
    <use href="#poly-splinter-a" transform="translate(100 100)" />
    <use href="#poly-splinter-a" transform="translate(-100 100)" />
    <use href="#poly-splinter-a" transform="translate(100 -100)" />
    <use href="#poly-splinter-a" transform="translate(-100 -100)" />

    <use href="#poly-splinter-b" />
    <use href="#poly-splinter-b" transform="translate(100 0)" />
    <use href="#poly-splinter-b" transform="translate(-100 0)" />
    <use href="#poly-splinter-b" transform="translate(0 100)" />
    <use href="#poly-splinter-b" transform="translate(0 -100)" />
    <use href="#poly-splinter-b" transform="translate(100 100)" />
    <use href="#poly-splinter-b" transform="translate(-100 100)" />
    <use href="#poly-splinter-b" transform="translate(100 -100)" />
    <use href="#poly-splinter-b" transform="translate(-100 -100)" />
  </g>

  <g fill="#1F2226">
    <use href="#poly-splinter-c" />
    <use href="#poly-splinter-c" transform="translate(100 0)" />
    <use href="#poly-splinter-c" transform="translate(-100 0)" />
    <use href="#poly-splinter-c" transform="translate(0 100)" />
    <use href="#poly-splinter-c" transform="translate(0 -100)" />
    <use href="#poly-splinter-c" transform="translate(100 100)" />
    <use href="#poly-splinter-c" transform="translate(-100 100)" />
    <use href="#poly-splinter-c" transform="translate(100 -100)" />
    <use href="#poly-splinter-c" transform="translate(-100 -100)" />

    <use href="#poly-splinter-d" />
    <use href="#poly-splinter-d" transform="translate(100 0)" />
    <use href="#poly-splinter-d" transform="translate(-100 0)" />
    <use href="#poly-splinter-d" transform="translate(0 100)" />
    <use href="#poly-splinter-d" transform="translate(0 -100)" />
    <use href="#poly-splinter-d" transform="translate(100 100)" />
    <use href="#poly-splinter-d" transform="translate(-100 100)" />
    <use href="#poly-splinter-d" transform="translate(100 -100)" />
    <use href="#poly-splinter-d" transform="translate(-100 -100)" />
  </g>

  <g fill="#2A2E33">
    <use href="#poly-splinter-e" />
    <use href="#poly-splinter-e" transform="translate(100 0)" />
    <use href="#poly-splinter-e" transform="translate(-100 0)" />
    <use href="#poly-splinter-e" transform="translate(0 100)" />
    <use href="#poly-splinter-e" transform="translate(0 -100)" />
    <use href="#poly-splinter-e" transform="translate(100 100)" />
    <use href="#poly-splinter-e" transform="translate(-100 100)" />
    <use href="#poly-splinter-e" transform="translate(100 -100)" />
    <use href="#poly-splinter-e" transform="translate(-100 -100)" />

    <use href="#poly-splinter-f" />
    <use href="#poly-splinter-f" transform="translate(100 0)" />
    <use href="#poly-splinter-f" transform="translate(-100 0)" />
    <use href="#poly-splinter-f" transform="translate(0 100)" />
    <use href="#poly-splinter-f" transform="translate(0 -100)" />
    <use href="#poly-splinter-f" transform="translate(100 100)" />
    <use href="#poly-splinter-f" transform="translate(-100 100)" />
    <use href="#poly-splinter-f" transform="translate(100 -100)" />
    <use href="#poly-splinter-f" transform="translate(-100 -100)" />
  </g>

  <g fill="#353A40">
    <use href="#poly-splinter-g" />
    <use href="#poly-splinter-g" transform="translate(100 0)" />
    <use href="#poly-splinter-g" transform="translate(-100 0)" />
    <use href="#poly-splinter-g" transform="translate(0 100)" />
    <use href="#poly-splinter-g" transform="translate(0 -100)" />
    <use href="#poly-splinter-g" transform="translate(100 100)" />
    <use href="#poly-splinter-g" transform="translate(-100 100)" />
    <use href="#poly-splinter-g" transform="translate(100 -100)" />
    <use href="#poly-splinter-g" transform="translate(-100 -100)" />

    <use href="#poly-splinter-h" />
    <use href="#poly-splinter-h" transform="translate(100 0)" />
    <use href="#poly-splinter-h" transform="translate(-100 0)" />
    <use href="#poly-splinter-h" transform="translate(0 100)" />
    <use href="#poly-splinter-h" transform="translate(0 -100)" />
    <use href="#poly-splinter-h" transform="translate(100 100)" />
    <use href="#poly-splinter-h" transform="translate(-100 100)" />
    <use href="#poly-splinter-h" transform="translate(100 -100)" />
    <use href="#poly-splinter-h" transform="translate(-100 -100)" />
  </g>

  <g fill="#40464D">
    <use href="#poly-chip-a" />
    <use href="#poly-chip-a" transform="translate(100 0)" />
    <use href="#poly-chip-a" transform="translate(-100 0)" />
    <use href="#poly-chip-a" transform="translate(0 100)" />
    <use href="#poly-chip-a" transform="translate(0 -100)" />
    <use href="#poly-chip-a" transform="translate(100 100)" />
    <use href="#poly-chip-a" transform="translate(-100 100)" />
    <use href="#poly-chip-a" transform="translate(100 -100)" />
    <use href="#poly-chip-a" transform="translate(-100 -100)" />

    <use href="#poly-chip-b" />
    <use href="#poly-chip-b" transform="translate(100 0)" />
    <use href="#poly-chip-b" transform="translate(-100 0)" />
    <use href="#poly-chip-b" transform="translate(0 100)" />
    <use href="#poly-chip-b" transform="translate(0 -100)" />
    <use href="#poly-chip-b" transform="translate(100 100)" />
    <use href="#poly-chip-b" transform="translate(-100 100)" />
    <use href="#poly-chip-b" transform="translate(100 -100)" />
    <use href="#poly-chip-b" transform="translate(-100 -100)" />
  </g>

  <g fill="#4B525A">
    <use href="#poly-chip-c" />
    <use href="#poly-chip-c" transform="translate(100 0)" />
    <use href="#poly-chip-c" transform="translate(-100 0)" />
    <use href="#poly-chip-c" transform="translate(0 100)" />
    <use href="#poly-chip-c" transform="translate(0 -100)" />
    <use href="#poly-chip-c" transform="translate(100 100)" />
    <use href="#poly-chip-c" transform="translate(-100 100)" />
    <use href="#poly-chip-c" transform="translate(100 -100)" />
    <use href="#poly-chip-c" transform="translate(-100 -100)" />

    <use href="#poly-chip-d" />
    <use href="#poly-chip-d" transform="translate(100 0)" />
    <use href="#poly-chip-d" transform="translate(-100 0)" />
    <use href="#poly-chip-d" transform="translate(0 100)" />
    <use href="#poly-chip-d" transform="translate(0 -100)" />
    <use href="#poly-chip-d" transform="translate(100 100)" />
    <use href="#poly-chip-d" transform="translate(-100 100)" />
    <use href="#poly-chip-d" transform="translate(100 -100)" />
    <use href="#poly-chip-d" transform="translate(-100 -100)" />
  </g>

  <g fill="#575E68">
    <use href="#poly-chip-e" />
    <use href="#poly-chip-e" transform="translate(100 0)" />
    <use href="#poly-chip-e" transform="translate(-100 0)" />
    <use href="#poly-chip-e" transform="translate(0 100)" />
    <use href="#poly-chip-e" transform="translate(0 -100)" />
    <use href="#poly-chip-e" transform="translate(100 100)" />
    <use href="#poly-chip-e" transform="translate(-100 100)" />
    <use href="#poly-chip-e" transform="translate(100 -100)" />
    <use href="#poly-chip-e" transform="translate(-100 -100)" />

    <use href="#poly-chip-f" />
    <use href="#poly-chip-f" transform="translate(100 0)" />
    <use href="#poly-chip-f" transform="translate(-100 0)" />
    <use href="#poly-chip-f" transform="translate(0 100)" />
    <use href="#poly-chip-f" transform="translate(0 -100)" />
    <use href="#poly-chip-f" transform="translate(100 100)" />
    <use href="#poly-chip-f" transform="translate(-100 100)" />
    <use href="#poly-chip-f" transform="translate(100 -100)" />
    <use href="#poly-chip-f" transform="translate(-100 -100)" />
  </g>

  <g fill="#636B76">
    <use href="#poly-chip-g" />
    <use href="#poly-chip-g" transform="translate(100 0)" />
    <use href="#poly-chip-g" transform="translate(-100 0)" />
    <use href="#poly-chip-g" transform="translate(0 100)" />
    <use href="#poly-chip-g" transform="translate(0 -100)" />
    <use href="#poly-chip-g" transform="translate(100 100)" />
    <use href="#poly-chip-g" transform="translate(-100 100)" />
    <use href="#poly-chip-g" transform="translate(100 -100)" />
    <use href="#poly-chip-g" transform="translate(-100 -100)" />

    <use href="#poly-chip-h" />
    <use href="#poly-chip-h" transform="translate(100 0)" />
    <use href="#poly-chip-h" transform="translate(-100 0)" />
    <use href="#poly-chip-h" transform="translate(0 100)" />
    <use href="#poly-chip-h" transform="translate(0 -100)" />
    <use href="#poly-chip-h" transform="translate(100 100)" />
    <use href="#poly-chip-h" transform="translate(-100 100)" />
    <use href="#poly-chip-h" transform="translate(100 -100)" />
    <use href="#poly-chip-h" transform="translate(-100 -100)" />
  </g>
</svg>